# xmcd
#
# Track frame offsets:
#	150
#	13441
#	27796
#	39218
#	51831
#	65443
#	82327
#	95014
#	108755
#	125876
#	143971
#
# Disc length: 2116 seconds
#
# Revision: 0
# Processed by: cddbd v1.4PL0 Copyright (c) Steve Scherf et al.
# Submitted via: dBpowerAMP V4.0
#
DISCID=9b08420b
DTITLE=Highway 101 - Bing, Bang, Boom
DYEAR=1900
DGENRE=Country
TTITLE0=Baby, I'm Missing You
TTITLE1=Big City Bound
TTITLE2=Bing Bang Boom
TTITLE3=Desperate
TTITLE4=Honky Tonk Baby
TTITLE5=Restless Kind
TTITLE6=River Of Tears
TTITLE7=Storm Of Love
TTITLE8=The Blame
TTITLE9=Till I Get It Right
TTITLE10=Wherever You Are
EXTD=
EXTT0=
EXTT1=
EXTT2=
EXTT3=
EXTT4=
EXTT5=
EXTT6=
EXTT7=
EXTT8=
EXTT9=
EXTT10=
PLAYORDER=
